<!-- <svg xmlns="http://www.w3.org/2000/svg" width="961" height="121" fill="none"><path fill="#fff" d="M20.2 0H0v118.1h73.4V101H20.2V0ZM106.9 53.8H87.2V118H107V53.8ZM164.6 115.8l-25-81.5H120l26.2 83.8H183l26.2-83.8h-19.8l-24.8 81.5ZM257.8 32.5c-25.4 0-41.6 18-41.6 43.7 0 25.5 15.7 43.8 41.6 43.8 19.8 0 34-8.7 39.4-26.6h-20c-3 8.1-8.4 13-19.2 13-12 0-20.3-8.3-21.9-24.5h62.5c.3-2 .5-4.1.5-6.2 0-26.1-16.3-43.2-41.3-43.2Zm-21.5 35.9c2-15 10-22.2 21.5-22.2 12.1 0 20.3 8.8 21.2 22.2h-42.7ZM413.8 0h-25.5l-49.2 54V0h-20.3v118.1h20.3V58.4l54.3 59.7h25.9L362.5 56l51.3-56ZM447.7 34.3H428v64.4h19.7V34.3ZM87.2 34.3H67.6v19.5h19.6V34.3ZM467.3 98.7h-19.6v19.4h19.6V98.7ZM525.9 98.7h-19.6v19.4h19.6V98.7ZM525.9 53.8V34.3h-19.6V0h-19.7v34.3H467v19.5h19.6v44.9h19.7v-45h19.6Z"/><path fill="#FF6352" d="M589.8 119V.4h-10.7V119h10.7Zm53.9 0L602.3.4H591L632.4 119h11.3Zm12.3 0L697.3.4h-11.2L644.7 119H656Zm53.2 0V.4h-10.6V119h10.6Zm99.4-42.9c0-25.6-16.4-41.8-38.4-41.8-23 0-38.7 17.5-38.7 43.2 0 25.9 15.6 43.2 39.2 43.2 18 0 31.3-8.4 36.2-26h-10.6c-3.6 11.4-11.7 18.2-25.6 18.2-16.4 0-27.8-11.8-28.7-32.7h66.3c.1-1.8.3-2.7.3-4.1Zm-38.4-34c16 0 26.8 12.8 27.8 30.1H742c1.7-18.9 12.4-30.1 28.1-30.1Zm130.4 34c0-25.6-16.4-41.8-38.4-41.8-23 0-38.7 17.5-38.7 43.2 0 25.9 15.6 43.2 39.2 43.2 18 0 31.3-8.4 36.2-26h-10.6c-3.6 11.4-11.7 18.2-25.6 18.2-16.4 0-27.8-11.8-28.7-32.7h66.3c.1-1.8.3-2.7.3-4.1Zm-38.4-34c16 0 26.9 12.8 27.8 30.1H834c1.8-18.9 12.4-30.1 28.1-30.1Zm88.3 69c-8.7 0-13.5-3.5-13.5-13.2V44h22.9v-8h-23V16.4h-10.2V36H908v8h18.6v53.9c0 14.4 9.3 21.1 22.9 21.1H960v-8h-9.5Z"/></svg> -->
<svg xmlns="http://www.w3.org/2000/svg" width="415" height="415" viewBox="0 0 415 415"><path d="M0 0h415v415H0z" fill="#FDFEFE"/><path d="m254.308 107.722 2.184 0.012 2.25 -0.005q2.358 -0.002 4.716 0.01c2.4 0.01 4.801 0 7.202 -0.012q2.292 0 4.582 0.007l2.172 -0.012c3.645 0.034 6.57 0.096 9.586 2.278 0.645 2.277 0.645 2.277 0.813 4.938l0.207 2.652C288 120 288 120 287 123c-5.793 2.425 -11.873 2.433 -18.086 2.754 -2.804 -0.079 -2.804 -0.079 -3.914 1.246l-1 8 23 1c1.102 3.305 1.07 5.536 0.875 9l-0.133 3.188C287 151 287 151 284.996 152.863c-4.034 1.53 -7.541 1.463 -11.808 1.325L265 154l-1 22 5 -2c2.63 -0.008 5.084 0.078 7.688 0.313l2.048 0.146c4.962 0.39 4.962 0.39 7.264 1.541 0.414 3.16 0.414 3.16 0.625 7.063l0.227 3.91L287 190c-3.724 2.4 -6.901 2.18 -11.25 2.047l-2.106 -0.062a630 630 0 0 1 -4.398 -0.152 635 635 0 0 0 -6.715 -0.204q-2.14 -0.07 -4.281 -0.145l-3.922 -0.133c-3.04 -0.32 -4.827 -0.65 -7.328 -2.351 -1.303 -2.607 -1.113 -4.493 -1.098 -7.412l0.01 -3.428 0.026 -3.719 0.011 -3.803c0.014 -4.709 0.038 -9.417 0.061 -14.126q0.033 -6.91 0.053 -13.82l0.025 -3.713 0.01 -3.438 0.016 -3.03c-0.005 -2.64 -0.005 -2.64 -1.114 -5.511 -5.705 6.18 -8.538 13 -11 21h-2l-0.77 3.36 -1.042 4.39 -0.502 2.21c-0.943 3.915 -1.746 7.107 -4.686 10.04h-2v7l-3 1 0.254 2.773 0.309 3.602 0.316 3.586C221 189 221 189 220 191h-2l-2 4h-8l0.07 -3.621c0.176 -11.82 0.176 -11.82 -2.07 -23.379h-2l-0.586 -1.934 -0.789 -2.503 -0.773 -2.497c-0.66 -2.244 -0.66 -2.244 -2.852 -3.066 -0.816 -2.11 -0.816 -2.11 -1.562 -4.75 -0.25 -0.861 -0.498 -1.722 -0.754 -2.61A117 117 0 0 1 195 143h-4v-13l4 -2 2 1v2l1.938 0.938C201 133 201 133 202 134a80 80 0 0 1 0.5 4.313c0.277 2.993 0.703 5.786 1.5 8.687h2l0.516 2.195c1.426 5.69 2.755 10.234 6.484 14.805l2 1 0.262 -1.871c0.95 -5.728 2.537 -10.072 5.508 -15.047 5.005 -8.47 7.407 -17.705 8.507 -27.383 0.88 -3.286 2.053 -4.629 4.723 -6.699h3l1 -4 5 1 2 8 0.367 -1.898 0.508 -2.477 0.492 -2.46c1.317 -4.505 3.685 -4.403 7.94 -4.443" fill="#CAF6FD"/><path d="M249 112h35v11h-22v16h22v13l-4.34 0.184 -5.598 0.254 -2.865 0.119 -2.724 0.127 -2.524 0.11c-1.952 0 -1.952 0 -2.949 1.206a96 96 0 0 0 -0.316 5.129l-0.127 3.135 -0.12 3.298 -0.13 3.311q-0.159 4.063 -0.307 8.127l22 1v10q-7.236 0.037 -14.471 0.055 -2.464 0.008 -4.927 0.02c-2.356 0.013 -4.711 0.018 -7.067 0.023l-2.238 0.015c-1.766 0 -3.532 -0.051 -5.297 -0.113 -1.662 -1.662 -1.12 -3.665 -1.124 -5.884l0.01 -2.114v-2.217c0 -2.43 0.009 -4.86 0.016 -7.289l0.005 -5.04q0.006 -6.645 0.024 -13.292c0.012 -5.311 0.017 -10.623 0.023 -15.934 0.01 -8.077 0.029 -16.153 0.046 -24.23" fill="#057DB5"/><path d="M65 221h3q0.755 1.935 1.5 3.875l0.844 2.18C71 229 71 229 71 231h2l0.883 2.273C76.63 240.133 79.469 247.095 84 253l3 1v-2l2 -1a83 83 0 0 0 2.125 -5.562l1.07 -3.067L93 240h2l0.781 -2.633c1.24 -3.426 2.76 -6.178 4.719 -9.242l1.844 -2.93L104 223h2q1.015 4.246 2 8.5l0.578 2.398c1.185 5.165 1.616 9.804 1.422 15.102h2c1.802 3.83 2.196 6.781 2 11h2q0.759 3.091 1.5 6.188l0.844 3.48C119 273 119 273 119 278h-11l-6 -27c-3.607 2.404 -3.855 3.947 -5 8h-2l-0.586 1.863 -0.789 2.45 -0.773 2.425C92 268 92 268 90 271h-2l-2 6h-2a377 377 0 0 1 -2.5 -4.25l-1.406 -2.39C79 268 79 268 79 264h-2v-4h-2a1151 1151 0 0 1 -2 -4.875l-1.125 -2.742C71 250 71 250 71 248h-3l0.188 2.813c0.008 4.305 -1.184 8.082 -2.387 12.187 -1.32 4.942 -2.028 9.947 -2.801 15H52v-7h2v-9h2l0.375 -2.312C60.14 237.473 60.14 237.473 63 228q0.566 -1.968 1.125 -3.937z" fill="#0A2F43"/><path d="M127 112q7.208 -0.037 14.417 -0.055 2.452 -0.008 4.906 -0.02c2.348 -0.013 4.696 -0.018 7.044 -0.023l2.223 -0.015c5.182 0 5.182 0 7.41 1.113v9c-2.4 1.2 -3.894 1.115 -6.57 1.098l-2.715 -0.01 -2.84 -0.025 -2.863 -0.014q-3.507 -0.02 -7.012 -0.049v15l4.305 -0.07q2.784 -0.029 5.57 -0.055c0.937 -0.017 1.874 -0.034 2.84 -0.05l2.715 -0.02 2.507 -0.032C161 138 161 138 163 140c0.278 4.012 0.086 7.974 0 12h-22l0.105 7.805q0.034 3.732 0.06 7.466 0.022 2.599 0.061 5.197c0.037 2.487 0.054 4.974 0.067 7.462 0.015 0.777 0.03 1.554 0.047 2.355 0 2.183 0 2.183 -0.34 5.715 -3.283 2.188 -4.318 2.249 -8.125 2.188l-2.695 -0.02C128 190 128 190 127 189a161 161 0 0 1 -0.114 -7.182v-2.276c0 -2.495 0.009 -4.989 0.016 -7.483l0.005 -5.175q0.006 -6.824 0.024 -13.647 0.014 -6.957 0.02 -13.915 0.016 -13.661 0.049 -27.322" fill="#1788B9"/><path d="M180 218h9c1 1 1 1 1.12 3.284l-0.006 3.062v3.458l-0.016 3.762 -0.005 3.83q-0.007 5.047 -0.024 10.096 -0.014 5.147 -0.02 10.295 -0.017 10.107 -0.049 20.213c-6.51 -1.257 -6.51 -1.257 -9 -3l-1.25 -2.687c-3.267 -6.185 -8.845 -9.807 -14.75 -13.313v-2l-5 -1 -1 -6h-2v-2h-2l-2 -3 -5 -1v36h-9v-58c7.42 3.71 12.705 9.658 18.453 15.523 10.27 11.004 10.27 11.004 22.547 19.477z" fill="#092E42"/><path d="M226 218h9q0.148 10.089 0.22 20.178 0.03 3.431 0.082 6.862c0.048 3.291 0.071 6.582 0.089 9.874l0.062 3.088c0.002 6.018 -0.457 9.41 -4.453 13.998 -5.26 4.733 -8.827 6.29 -15.937 6.313l-3.653 0.05c-6.038 -0.643 -9.442 -3.966 -13.41 -8.363 -1.808 -2.991 -2.25 -5.184 -2.243 -8.66l-0.01 -2.781 0.023 -2.977v-3.07q0.006 -3.206 0.024 -6.412c0.018 -3.285 0.02 -6.57 0.02 -9.856q0.007 -3.113 0.018 -6.224l0.003 -2.996 0.02 -2.751 0.011 -2.433C196 220 196 220 197 219c3.5 -0.125 3.5 -0.125 7 0 1.57 1.57 1.164 3.154 1.205 5.336l0.06 2.79 0.051 3.034 0.063 3.09q0.097 4.906 0.184 9.813l0.13 6.634q0.162 8.151 0.307 16.303c3.07 0.779 6.142 1.45 9.25 2.063l2.703 0.535L220 269v-2l3 -1c2.73 -4.57 2.349 -9.734 2.414 -14.895l0.059 -2.87c0.06 -3.016 0.106 -6.032 0.152 -9.048l0.117 -6.146q0.142 -7.52 0.258 -15.041" fill="#0B2D42"/><path d="M237 112h5v15l-4 2c-1.168 2.337 -2.084 4.564 -3 7a1406 1406 0 0 1 -2.687 6.438L230 148h-2v6h-2c-0.752 3.655 -1.4 7.317 -2 11h-2l0.25 2.063C222 170 222 170 220.063 173c-2.803 4.435 -2.636 9.084 -2.79 14.207C217 190 217 190 215 192c-3.625 0.125 -3.625 0.125 -7 0l0.07 -2.965c0.1 -7.308 -0.08 -13.947 -2.07 -21.035h-2l-0.586 -1.934 -0.789 -2.504 -0.773 -2.496c-0.66 -2.244 -0.66 -2.244 -2.852 -3.066 -0.816 -2.11 -0.816 -2.11 -1.562 -4.75 -0.25 -0.861 -0.498 -1.722 -0.754 -2.61A117 117 0 0 1 195 143h-4v-13l4 -2 2 1v2l1.938 0.938C201 133 201 133 202 134a80 80 0 0 1 0.5 4.313c0.277 2.993 0.703 5.786 1.5 8.687h2l0.516 2.195c1.426 5.69 2.755 10.234 6.484 14.805l2 1 0.262 -1.871c0.95 -5.728 2.537 -10.072 5.508 -15.047 5.005 -8.47 7.407 -17.705 8.507 -27.383 0.88 -3.286 2.053 -4.629 4.723 -6.699h3z" fill="#082D6A"/><path d="M350.328 219.086C352 221 352 221 352.25 224.687L352 228l-3.21 0.148 -4.165 0.227 -2.117 0.094c-4.21 0.126 -4.21 0.126 -7.508 2.531 -0.5 3.458 -0.5 3.458 0 7 2.355 2.523 4.638 3.4 8 4v2l1.758 0.191c5.765 0.904 8.566 2.447 12.148 7.055 2.986 4.789 2.634 10.32 2.094 15.754 -1.719 5.373 -5.077 8.426 -10 11 -3.455 0.493 -6.83 0.425 -10.312 0.313l-2.784 -0.03c-6.735 -0.114 -6.735 -0.114 -7.904 -1.283a75 75 0 0 1 -0.062 -4.562l0.027 -2.504L328 268l1.691 0.492c5.554 1.222 11.826 0.97 17.309 -0.492q0.039 -2.156 0.063 -4.312l0.035 -2.426c-0.001 -2.43 -0.001 -2.43 -1.098 -5.262 -1.997 -0.814 -1.997 -0.814 -4.437 -1.312 -6.514 -1.788 -13.154 -4.504 -17.325 -10.016 -2.408 -5.195 -2.146 -11.55 -0.558 -17.008 0.82 -1.914 0.82 -1.914 2.32 -4.664h3v-2c6.64 -3.006 14.37 -5.16 21.328 -1.914" fill="#123345"/><path d="m292.5 217.886 3.285 0.016 3.545 0.01 3.733 0.025 3.744 0.014q4.597 0.018 9.193 0.049v8h-17v13h18v9c-1 1 -1 1 -4.816 1.098a705 705 0 0 1 -4.746 -0.036L299 249v22h17v7h-27c-0.02 -7.668 -0.041 -15.337 -0.052 -23.005q-0.007 -5.355 -0.023 -10.712a6282 6282 0 0 1 -0.023 -12.28l-0.015 -3.894v-3.58l-0.007 -3.169c0.166 -3.27 0.339 -3.325 3.62 -3.474" fill="#1D3E50"/><path d="M170 112h11c1.662 1.662 1.12 3.665 1.124 5.884l-0.01 2.114v2.217c0 2.43 -0.009 4.86 -0.016 7.289l-0.005 5.04q-0.006 6.645 -0.024 13.292 -0.014 6.776 -0.02 13.553 -0.016 13.305 -0.049 26.611h-12z" fill="#1182B5"/><path d="M243 218h40v9h-14l-1 51h-10v-52h-15z" fill="#0E2F43"/><path d="m135.371 108.7 2.178 -0.014q2.279 -0.008 4.557 -0.002c2.32 0.003 4.639 -0.02 6.958 -0.045q2.217 -0.004 4.432 -0.002l2.096 -0.028c3.083 0.03 5.138 0.237 7.838 1.78 1.812 1.86 2.07 3.111 2.57 5.611l2 1 -0.187 -2.375L168 112c3.364 -2.242 4.623 -2.271 8.563 -2.25l2.94 -0.016C182 110 182 110 184 112c0.188 2.5 0.252 4.887 0.227 7.387v2.306c0 2.522 -0.016 5.043 -0.032 7.565l-0.008 5.238c-0.008 4.6 -0.028 9.2 -0.05 13.8 -0.02 4.691 -0.03 9.383 -0.04 14.075Q184.066 176.186 184 190h-14v-2h-2l-0.031 -2.11q-0.148 -9.885 -0.308 -19.771 -0.084 -5.082 -0.158 -10.162 -0.088 -5.854 -0.187 -11.707l-0.05 -3.653c-0.104 -5.945 -0.376 -11.716 -1.266 -17.597l-1.208 1.482c-2.301 1.95 -3.479 1.868 -6.46 1.811l-2.705 -0.03 -2.815 -0.076 -2.85 -0.04A771 771 0 0 1 143 126l1 10h16l1 2h-20v-15l22 -1v-9h-38v-2c3.593 -2.396 6.219 -2.306 10.371 -2.3M170 112v76h12q0.034 -14.643 0.052 -29.285 0.007 -6.798 0.023 -13.596 0.016 -6.555 0.02 -13.11 0.003 -2.508 0.01 -5.014 0.01 -3.498 0.009 -6.997l0.01 -2.114c0.267 -3.22 0.267 -3.22 -1.124 -5.884z" fill="#C3F5FD"/><path d="M65 221h3a778 778 0 0 1 2.973 7.402 446 446 0 0 0 2.34 5.786c0.91 3.721 0.777 6.133 -0.313 9.812l-2.95 1.398c-2.497 1.555 -2.995 2.406 -3.806 5.292 -0.477 3.436 -0.8 6.85 -1.056 10.31q-0.32 3.53 -0.645 7.063l-0.25 3.16C64 274 64 274 63 278H52v-7h2v-9h2l0.375 -2.312C60.14 237.473 60.14 237.473 63 228q0.566 -1.968 1.125 -3.937z" fill="#08283B"/><path d="M166 122c1.653 4.96 2.125 9.705 2.114 14.914v3.456l-0.016 3.685 -0.005 3.808q-0.007 4.986 -0.024 9.972 -0.014 5.099 -0.02 10.196 -0.017 9.985 -0.049 19.969h2v2h13c-4.033 2.017 -7.582 3.176 -12 2 -2.584 -1.986 -4.672 -3.596 -5.439 -6.881 -0.139 -2.25 -0.123 -4.448 -0.05 -6.701l0.022 -2.467c0.028 -2.589 0.09 -5.175 0.155 -7.763q0.037 -2.64 0.068 -5.28c0.055 -4.303 0.141 -8.605 0.244 -12.908l-1.732 1.964c-2.487 2.233 -3.312 2.545 -6.561 2.61l-2.408 0.084 -2.487 0.03c-5.327 -0.362 -5.327 -0.362 -9.812 1.312a148 148 0 0 0 -0.316 6.441l-0.127 3.955 -0.12 4.167 -0.13 4.177q-0.16 5.13 -0.307 10.26h-1v-33h22l-0.375 -5.812c-0.07 -1.08 -0.14 -2.158 -0.21 -3.27 -0.227 -3.104 -0.227 -3.104 -2.415 -5.918a78 78 0 0 0 -8.062 -0.562A123 123 0 0 1 144 136c-1.607 -3.215 -1.057 -6.436 -1 -10l1.788 -0.044a932 932 0 0 0 8.024 -0.269l2.815 -0.068 2.705 -0.107 2.491 -0.08c2.603 -0.517 3.516 -1.414 5.177 -3.432" fill="#F6FEFD"/><path d="M124 219h8v59h-8z" fill="#0E3244"/><path d="m201.125 216.938 2.758 0.027L206 217l0.011 1.681c0.042 5.776 0.111 11.55 0.197 17.325q0.042 3.233 0.063 6.466c0.021 3.099 0.068 6.196 0.12 9.294l0.003 2.92c0.058 5.325 0.058 5.325 2.51 9.916 2.266 1.512 3.647 1.968 6.346 2.148l3.75 0.25v-2l5 -1 -1 3h-3v2c-5.576 0.288 -9.174 0.178 -14 -3 -0.912 -2.736 -1.147 -4.461 -1.205 -7.288l-0.06 -2.608 -0.051 -2.803 -0.063 -2.88q-0.097 -4.554 -0.184 -9.108l-0.13 -6.174q-0.16 -7.57 -0.307 -15.139h-7l-1 42 -3 -4c-1.65 3.3 -1.383 6.991 -1.562 10.625l-0.131 2.43q-0.159 2.972 -0.307 5.945l-4 1v-2h3l-1 -58h2l1 14 0.875 -6.937A99 99 0 0 1 194 218c2.525 -1.262 4.312 -1.099 7.125 -1.062" fill="#DAE3E9"/><path d="M249 112h35v11h-22v-2l21 -1 -1 -6 -31 -1v74h32l-1 -7h-20v-3l22 1v10q-7.236 0.037 -14.471 0.055 -2.464 0.008 -4.927 0.02c-2.356 0.013 -4.711 0.018 -7.067 0.023l-2.238 0.015c-1.766 0 -3.532 -0.051 -5.297 -0.113 -1.662 -1.662 -1.12 -3.665 -1.124 -5.884l0.01 -2.114v-2.217c0 -2.43 0.009 -4.86 0.016 -7.289l0.005 -5.04q0.006 -6.645 0.024 -13.292c0.012 -5.311 0.017 -10.623 0.023 -15.934 0.01 -8.077 0.029 -16.153 0.046 -24.23" fill="#59B7D5"/><path d="m238 110 5 1c1.05 3.49 1.233 6.802 1.313 10.438l0.113 3.37c-0.518 3.88 -1.855 5.312 -4.426 8.192 -1.216 2.206 -1.216 2.206 -2.125 4.438l-0.992 2.335A110 110 0 0 0 234 148h-2l-0.77 3.36 -1.042 4.39 -0.502 2.21c-0.943 3.915 -1.746 7.107 -4.686 10.04h-2v7l-3 1 0.254 2.773 0.309 3.602 0.316 3.586C221 189 221 189 220 191h-2l-2 4h-8v-3l3.438 -0.437c3.37 -0.175 3.37 -0.175 4.562 -1.563 0.133 -2.04 0.231 -4.082 0.313 -6.125 0.392 -5.886 1.46 -9.035 4.687 -13.875 0.775 -2.771 0.775 -2.771 1 -5h2l-0.125 -2.687c0.124 -3.286 0.739 -5.367 2.125 -8.313h2v-6h2l0.348 -2.187c0.678 -2.925 1.694 -5.163 3.09 -7.813 1.352 -2.584 2.554 -4.977 3.472 -7.75L238 128l4 -1v-15h-5z" fill="#CAEDF6"/><path d="m266.063 151.773 2.507 0.032 2.715 0.02 2.84 0.05 2.863 0.027q3.507 0.036 7.012 0.098c-2 2 -2 2 -5.914 2.195q-2.355 -0.019 -4.711 -0.07L265 154l-1 22 5 -2c2.63 -0.008 5.084 0.078 7.688 0.312l2.048 0.147c4.962 0.39 4.962 0.39 7.264 1.541 0.414 3.16 0.414 3.16 0.625 7.062l0.227 3.91L287 190c-3.688 2.401 -7.16 2.177 -11.39 1.977l-2.136 -0.076a993 993 0 0 1 -6.724 -0.276q-2.285 -0.088 -4.57 -0.172 -5.59 -0.212 -11.18 -0.453l-1 -3h34v-10l-4.305 0.035q-2.784 0.015 -5.57 0.027l-2.84 0.026 -2.715 0.01 -2.507 0.016C264 178 264 178 262 177a1633 1633 0 0 1 -0.125 -11.375c-0.017 -1.08 -0.034 -2.16 -0.05 -3.273l-0.02 -3.125 -0.032 -2.889c0.3 -3.097 1.137 -4.218 4.29 -4.565" fill="#B7EEFA"/><path d="M193 128c2.125 0.375 2.125 0.375 4 1v2l1.938 0.938C201 133 201 133 202 134c0.417 3.675 0.77 7.349 1.074 11.035 0.377 3.893 0.87 7.222 2.496 10.8C207 159 207 159 207 163h-2v-3l-2.812 -0.375C199 158 199 158 197.968 155.816c-1.254 -4.222 -2.123 -8.495 -2.968 -12.816h-4c-0.054 -2.125 -0.093 -4.25 -0.125 -6.375l-0.07 -3.586C191 130 191 130 193 128" fill="#062B6B"/><path d="m137 219 4 1h-2v58h9v-36h5l2 4h2v2h2v2c-3 0 -3 0 -4.562 -1.437L153 247l-2 -1 -1 33c-2 1 -2 1 -13 1z" fill="#CAD9E1"/><path d="M66 225c3.713 1.677 4.792 2.855 6.313 6.688 1.624 4.485 2.354 7.682 0.687 12.312l-6 4c-0.813 3.605 -0.813 3.605 -1 7 -2.49 1.245 -3.41 0.777 -6 0 -0.358 -7.267 0.861 -13.14 3 -20.062l0.867 -2.913Q64.917 228.508 66 225" fill="#04243C"/><path d="m127 112 1 77c8.882 0.745 8.882 0.745 12 -1l-1 3c-1.936 0.108 -3.874 0.186 -5.812 0.25l-3.27 0.14c-2.918 -0.39 -2.918 -0.39 -4.58 -2.062 -1.651 -2.873 -1.695 -4.66 -1.663 -7.963l0.01 -3.43c0.02 -1.22 0.038 -2.44 0.057 -3.697l0.02 -3.819q0.031 -5.028 0.09 -10.056c0.052 -4.7 0.085 -9.402 0.114 -14.103q0.025 -3.75 0.07 -7.5c0.054 -6.363 -0.26 -12.448 -1.036 -18.76 0.1 -2.48 0.441 -4.562 1 -7 2 -1 2 -1 3 -1" fill="#D7FCFE"/><path d="M180 218h9c1 1 1 1 1.12 3.284l-0.006 3.062v3.458l-0.016 3.762 -0.005 3.83q-0.007 5.047 -0.024 10.096 -0.014 5.147 -0.02 10.295 -0.017 10.107 -0.049 20.213c-6.365 -1.212 -6.365 -1.212 -9 -3l-1 -4 8 4v-53h-6v35h-2z" fill="#4D6572"/><path d="M284 113h2v10c-4.513 1.712 -8.5 2.324 -13.312 2.563 -4.164 -0.159 -4.164 -0.159 -7.688 1.437l-1 8 23 1c1.142 3.427 0.909 5.611 0.563 9.188l-0.31 3.292L287 151l-3 1v-13h-22v-16h22z" fill="#B3EFFA"/><path d="M243 218h40v9h-14l-1 51h-1v-53h15v-5h-38v5h12v1h-13z" fill="#6C8391"/><path d="M240 115c0.29 3.38 0.44 6.63 0 10 -2.312 2.063 -2.312 2.063 -5 4 -1.359 2.9 -2.171 5.913 -3 9l-1.187 4.063L230 145h-2l-2 7h-2v2h-2c-0.517 -5.424 1.029 -7.588 4 -12q0.553 -3.493 1 -7a132 132 0 0 1 3 -5c0.707 -2.693 0.707 -2.693 1 -5h2l-0.25 -2.75c0.25 -3.25 0.25 -3.25 2.063 -5.625C237 115 237 115 240 115" fill="#00175B"/><path d="M181 112h3v78h-14v-2h12z" fill="#A0E1F6"/><path d="m111 256 1 4h4q0.759 3.091 1.5 6.188l0.844 3.48C119 273 119 273 119 278h-11a383 383 0 0 1 -0.75 -7.625l-0.246 -2.16c-0.45 -5.446 0.546 -7.976 3.996 -12.215" fill="#153847"/><path d="M122 220h1v58h10v2h-26c-3.375 -13.5 -3.375 -13.5 -3 -20 1.502 2.784 2.45 5.35 3.125 8.438l0.508 2.246C108 273 108 273 108 278h11l-1 -10 1 3h2z" fill="#D8EAF1"/><path d="M139 220c4.098 2.05 6.642 3.94 10 7l1 3 -5 -2v-2h-2v-2h-2l0.016 2.389c0.097 16.904 -0.087 33.725 -1.016 50.611h7v-37l4 1 -3 1v36h-9z" fill="#435D6C"/><path d="M237 112h5v15l-4 2c-1.145 2.338 -2.08 4.578 -3 7q-1.08 2.475 -2.187 4.938l-1.043 2.34L231 145c-1.455 -4.472 0.039 -6.787 2 -11l0.938 -3.25C235 128 235 128 237.02 126.652c2.204 -1.507 2.204 -1.507 2.59 -4.132l0.14 -2.707 0.172 -2.731L240 115c-2.522 1.027 -2.522 1.027 -5 3 -1.369 3.58 -1.369 3.58 -2 7h-2l0.188 2.188C231 130 231 130 229.563 132.375c-1.786 2.577 -1.786 2.577 -1.875 5.813 -0.969 5.37 -3.72 9.3 -6.688 13.812l-1 -2 1.25 -1.937c2.106 -3.687 2.952 -7.266 3.992 -11.36 0.758 -2.703 0.758 -2.703 2.383 -6.328 1.237 -3.036 1.59 -4.878 1.813 -8.062 0.27 -3.23 0.45 -4.16 2.437 -6.876C234 114 234 114 237 114z" fill="#265D88"/><path d="M250 114h1v73h32l-1 -7h-20v-3l22 1v10h-34z" fill="#359FC7"/><path d="M226 218h9v48l-2 1 1 -47h-6c0.01 1.12 0.02 2.24 0.032 3.393 0.036 4.17 0.059 8.342 0.078 12.513q0.016 2.703 0.04 5.406c0.025 2.597 0.037 5.193 0.045 7.79l0.032 2.425c0 4.559 -0.491 8.178 -2.227 12.473 -0.942 -2.826 -1.098 -4.38 -1.022 -7.288l0.061 -2.608 0.082 -2.803 0.072 -2.88q0.116 -4.554 0.244 -9.108l0.159 -6.174q0.195 -7.57 0.404 -15.139" fill="#385163"/><path d="M191 126h4v2l-3 2c-0.586 3.116 -0.586 3.116 -0.687 6.625l-0.2 3.602L191 143h4q1.011 2.621 2 5.25l1.125 2.953C199 154 199 154 199 158l3 1c2.041 3.008 2.199 5.422 2 9h2c3.423 7.942 3.004 14.495 2 23l-2 -1 0.07 -3.21q0.029 -2.083 0.055 -4.165c0.017 -0.699 0.034 -1.397 0.05 -2.117 0.018 -1.837 -0.072 -3.674 -0.175 -5.508l-2 -2a306 306 0 0 1 -2 -5c-2.027 -4.815 -2.027 -4.815 -5 -9 -0.04 -2 -0.043 -4 0 -6l-3 -1c-1.648 -2.602 -2 -3.862 -2 -7h-2a2399 2399 0 0 1 -0.062 -8.937l-0.026 -2.577 -0.01 -2.45 -0.016 -2.27C190 127 190 127 191 126" fill="#CBECF8"/><path d="M196 217h10l0.028 4.067c0.04 4.98 0.106 9.96 0.18 14.94q0.042 3.232 0.063 6.465c0.021 3.099 0.068 6.196 0.12 9.294l0.003 2.92c0.058 5.325 0.058 5.325 2.51 9.916 2.266 1.512 3.647 1.968 6.346 2.148l3.75 0.25v-2l5 -1 -1 3h-3v2c-5.576 0.288 -9.174 0.178 -14 -3 -0.912 -2.736 -1.147 -4.461 -1.205 -7.288l-0.06 -2.608 -0.051 -2.803 -0.063 -2.88q-0.097 -4.554 -0.184 -9.108l-0.13 -6.174q-0.16 -7.57 -0.307 -15.139h-7l-1 42h-1q-0.037 -9.13 -0.055 -18.262 -0.008 -3.108 -0.02 -6.216a3458 3458 0 0 1 -0.023 -8.92l-0.015 -2.82v-2.608l-0.007 -2.301C195 219 195 219 196 217" fill="#A3B8C4"/><path d="m234 111 3 1v2a99 99 0 0 1 -5 3c-1.707 1.707 -1.495 4.106 -1.812 6.438 -0.818 5.166 -2.177 9.608 -4.254 14.394 -1.03 2.282 -1.03 2.282 -1.871 5.23 -0.978 2.703 -2.131 4.896 -3.563 7.375 -2.2 3.836 -3.47 7.274 -4.5 11.563l-1 3c-3.833 -1.454 -5.283 -3.308 -7 -7 -0.187 -2.812 -0.187 -2.812 0 -5l1 2h3v5l4 -1 1 -8h2l0.375 -3.937c0.21 -2.215 0.21 -2.215 0.625 -4.063l2 -1c0.69 -2.35 0.69 -2.35 1.125 -5.062l0.508 -2.786L224 132h3l0.148 -1.723c0.724 -7.475 1.63 -13.533 6.852 -19.277" fill="#A5D2E6"/><path d="M140 123h1v15l4.305 -0.07q2.784 -0.029 5.57 -0.055c0.937 -0.017 1.874 -0.034 2.84 -0.05l2.715 -0.02 2.507 -0.032C161 138 161 138 163 140c0.278 4.012 0.086 7.974 0 12h-22v-1h20l-1 -9 -3.832 -0.148 -4.98 -0.227 -2.526 -0.094 -2.432 -0.117 -2.237 -0.095C142 141 142 141 139 139c-0.328 -3.187 -0.328 -3.187 -0.25 -7 0.015 -1.258 0.03 -2.516 0.047 -3.812C139 125 139 125 140 123" fill="#49B2D0"/><path d="M222 155c1.143 3.353 0.854 5.209 -0.375 8.5 -1.033 2.819 -1.947 5.574 -2.625 8.5h-2v2h-2v2c-4.875 -0.875 -4.875 -0.875 -6 -2 -0.04 -2 -0.043 -4 0 -6h-2l1 -4 8 1c0.182 -0.638 0.364 -1.276 0.55 -1.934 0.252 -0.826 0.504 -1.652 0.762 -2.504l0.739 -2.496L219 156z" fill="#011B62"/><path d="M72 231c3.648 4.169 6 9.448 6 15a396 396 0 0 1 -3 5c-0.696 2.191 -0.696 2.191 -1 4h2v4h2l1 5h-2v-4h-2a1151 1151 0 0 1 -2 -4.875l-1.125 -2.742C71 250 71 250 71 248h-3l0.125 3.063c-0.13 4.118 -0.858 7.055 -2.125 10.937h-1c0.013 -4.732 0.143 -9.339 1 -14 3 -2.437 3 -2.437 6 -4 1.277 -4.598 1.016 -8.371 0 -13" fill="#2A495A"/><path d="M66.563 218.938 69 219v4h2l1 7h2v2h2l1 8c-2 -1 -2 -1 -2.633 -2.848l-0.492 -2.214 -0.508 -2.223L73 231h-2c-3 -6.625 -3 -6.625 -3 -10h-3l-0.383 2.992c-0.588 4.109 -1.511 8.103 -2.492 12.133l-1.074 4.488 -0.537 2.233c-0.994 4.166 -1.944 8.343 -2.9 12.517A335 335 0 0 1 56 262h-2c-0.195 -4.863 0.319 -8.45 2 -13 0.361 -1.66 0.705 -3.326 1 -5h2l0.113 -2.203c1.485 -22.714 1.485 -22.714 7.45 -22.86" fill="#B8C6CE"/><path d="M148 242h5l2 4h2v2h2v2c-3 0 -3 0 -4.562 -1.437L153 247l-2 -1 -1 33c-2.405 1.203 -3.95 1.1 -6.625 1.063l-2.477 -0.028L139 280v-2h9z" fill="#ABBCC6"/><path d="M209 177h2v3c2.867 -0.573 3.861 -0.861 6 -3 0.054 2.125 0.093 4.25 0.125 6.375l0.07 3.586C217 190 217 190 215 192c-3.625 0.125 -3.625 0.125 -7 0q-0.04 -2.625 -0.062 -5.25l-0.036 -2.953c0.086 -2.455 0.39 -4.459 1.098 -6.797" fill="#1F86B3"/><path d="M246 116h2v72h2v2l-3 -1c-1.305 -2.61 -1.106 -4.49 -1.082 -7.412l0.02 -3.428 0.035 -3.719 0.037 -7.732q0.036 -6.12 0.086 -12.24c0.032 -3.926 0.048 -7.852 0.064 -11.778l0.04 -3.712 0.011 -3.438 0.023 -3.03c-0.057 -2.76 -0.057 -2.76 -2.234 -5.511 -0.309 -4.248 -0.33 -7.359 2 -11" fill="#DEFEFE"/><path d="m161 138 4 1c0.08 2.124 0.14 4.25 0.188 6.375l0.105 3.586L165 152c-3.026 2.018 -3.772 2.262 -7.195 2.379l-2.418 0.103 -2.512 0.08c-5.36 -0.295 -5.36 -0.295 -9.875 1.438a148 148 0 0 0 -0.316 6.441l-0.127 3.955 -0.12 4.167 -0.13 4.177q-0.16 5.13 -0.307 10.26h-1v-33h22l-0.437 -5.875 -0.247 -3.305c-0.146 -2.767 -0.146 -2.767 -1.316 -4.82" fill="#C4F9FE"/><path d="M262 139h22v13l-4.34 0.184 -5.598 0.254 -2.865 0.119 -2.724 0.127 -2.524 0.11c-1.952 0 -1.952 0 -2.949 1.206a96 96 0 0 0 -0.316 5.129l-0.127 3.135 -0.12 3.298 -0.13 3.311q-0.16 4.063 -0.307 8.127h-1q-0.042 -6.469 -0.062 -12.937l-0.026 -3.733 -0.01 -3.545 -0.016 -3.285C261 151 261 151 262 150a76 76 0 0 1 4.691 -0.098l2.862 0.01 3.01 0.025 3.021 0.014q3.708 0.018 7.416 0.049v-9l-21 -1z" fill="#3DA7C8"/><path d="M167 131h1v57h2v2h13c-4.033 2.017 -7.582 3.176 -12 2 -2.584 -1.986 -4.672 -3.596 -5.439 -6.881 -0.139 -2.25 -0.123 -4.448 -0.05 -6.701l0.022 -2.467c0.028 -2.589 0.09 -5.175 0.155 -7.763q0.037 -2.64 0.068 -5.28c0.055 -4.303 0.141 -8.605 0.244 -12.908h-1v-9h1z" fill="#E3FDFE"/><path d="M104 247c1.298 5.76 2.257 11.087 2 17 -1.576 -2.886 -2.463 -5.533 -3.125 -8.75l-0.508 -2.422L102 251c-3.607 2.404 -3.855 3.947 -5 8h-2l-0.55 1.863 -0.763 2.45 -0.738 2.425c-0.99 2.362 -2.03 3.6 -3.949 5.262l1 -7h2v-4h2l-1 -5h3l0.875 -3.437L98 248c2 -1 2 -1 6 -1" fill="#4C697A"/><path d="M350.328 219.086C352 221 352 221 352.25 224.687L352 228l-3.21 0.148 -4.165 0.227 -2.117 0.094c-4.21 0.126 -4.21 0.126 -7.508 2.531 -0.5 3.416 -0.5 3.416 0 7 1.854 2.441 1.854 2.441 4 4 -4.875 -1.875 -4.875 -1.875 -6 -3 -0.203 -1.96 -0.203 -1.96 -0.25 -4.375l-0.078 -2.398C333 230 333 230 334.066 228.223c2.99 -1.891 5.635 -1.506 9.122 -1.41l3.855 0.082L350 227v-6l-13 -1 -1 3h-7v-2c6.64 -3.006 14.37 -5.16 21.328 -1.914" fill="#59717D"/><path d="M164 153v2c-3.848 1.18 -7.758 1.332 -11.75 1.563l-2.113 0.13q-2.568 0.158 -5.137 0.307l-0.136 2.814q-0.26 5.16 -0.554 10.32a645 645 0 0 0 -0.23 4.47 625 625 0 0 1 -0.35 6.42l-0.206 3.903L143 188l-3 2 0.485 -2.077c0.575 -3.265 0.694 -6.37 0.761 -9.685l0.1 -3.888q0.072 -3.042 0.13 -6.084c0.04 -1.968 0.093 -3.935 0.145 -5.903l0.076 -3.553C142 156 142 156 144 154c1.848 -0.319 1.848 -0.319 4.063 -0.414l2.414 -0.117 2.523 -0.094 2.523 -0.117c5.69 -0.258 5.69 -0.258 8.477 -0.258" fill="#EAFEFD"/><path d="M222 159h2v6h-2l0.25 2.063c-0.35 4.106 -2.068 6.46 -4.25 9.937h-2l-1 3h-4v-3h-3l-2 -8h2l1.25 2.938c1.399 3.185 1.399 3.185 3.938 3.937L215 176v-2h2v-2h2l0.375 -3.687c0.414 -3.378 1.17 -6.21 2.625 -9.313" fill="#15457F"/><path d="M198 140c4.427 3.612 5.624 6.262 6.598 11.855 0.36 2.304 0.36 2.304 1.527 4.958C207 159 207 159 207 163h-2v-3l-3 -1v-7h-2c-2.952 -2.952 -3.087 -5.955 -4 -10h2z" fill="#00105B"/><path d="M104 260c1.502 2.784 2.45 5.35 3.125 8.438l0.508 2.246C108 273 108 273 108 278h11l-1 -10 1 3h2l-1 9h-13c-1.882 -6.9 -3.412 -12.856 -3 -20" fill="#AFBFC8"/><path d="m345 255 2 1c1.185 3.554 1.266 6.27 1 10 -1.831 2.616 -2.91 2.97 -6 4 -1.643 0.118 -3.29 0.175 -4.937 0.188l-2.59 0.042c-2.612 -0.243 -4.228 -0.912 -6.473 -2.23v8h-1v-9l16 1v-2h3l-0.5 -1.562c-0.65 -3.172 -0.562 -6.21 -0.5 -9.438" fill="#A9BEC5"/><path d="M107 227c3.57 3.57 3.995 8.334 4.313 13.188 0.358 3.98 1.545 7.05 3.187 10.687 2.557 5.733 3.365 10.882 3.5 17.125 -2.152 -3.228 -2.2 -4.284 -2 -8h-2l-2 -11h-2a3523 3523 0 0 1 -1.5 -8.75l-0.434 -2.5 -0.41 -2.422 -0.38 -2.222C107 231 107 231 107 227" fill="#6A868D"/><path d="M201 159c2.097 2.36 2.97 3.546 3.188 6.75L204 168h2c3.423 7.942 3.004 14.495 2 23l-2 -1 0.07 -3.21q0.029 -2.083 0.055 -4.165c0.017 -0.699 0.034 -1.397 0.05 -2.117 0.018 -1.837 -0.072 -3.674 -0.175 -5.508l-2 -2a208 208 0 0 1 -2 -5l-1 -1c-0.141 -2.67 -0.042 -5.324 0 -8" fill="#ABDCED"/><path d="M195 128h5l1 4 4 1c0.936 3.155 1.106 5.966 1.063 9.25l-0.028 2.703L206 147h-2c-1.685 -2.959 -2.226 -5.177 -2.375 -8.562 -0.252 -3.665 -0.252 -3.665 -2.687 -6.375L197 131v-2z" fill="#C5E9F5"/><path d="m234 111 3 1v2a99 99 0 0 1 -5 3c-1.728 1.728 -1.539 4.207 -1.875 6.563 -0.836 5.19 -1.88 9.677 -4.125 14.437l-3 1 1 -7h3l0.148 -1.723c0.724 -7.475 1.63 -13.533 6.852 -19.277" fill="#C7EEF9"/><path d="M65 221h3l2 6 -4 -2 -0.77 3.621C63.52 236.565 61.828 244.364 59 252c-1.222 -4.017 -0.398 -6.04 1 -10q0.509 -3.499 1 -7a221 221 0 0 1 2 -7q0.566 -1.968 1.125 -3.937z" fill="#49606E"/><path d="M196 220h1l0.06 3.991c0.076 4.882 0.165 9.762 0.257 14.643q0.059 3.17 0.105 6.34c0.045 3.037 0.103 6.072 0.164 9.108l0.035 2.87 0.06 2.668 0.04 2.349c0.171 2.342 0.171 2.342 2.279 5.031 -0.375 2.188 -0.375 2.188 -1 4 -3.894 -4.837 -3.386 -9.649 -3.293 -15.55l0.013 -3.073c0.017 -3.23 0.054 -6.46 0.093 -9.69q0.022 -3.29 0.04 -6.58 0.052 -8.053 0.147 -16.107" fill="#345366"/><path d="M234 114v3l-2 2c-0.351 2.496 -0.351 2.496 -0.437 5.313 -0.32 4.466 -1.063 6.937 -3.563 10.687l-0.312 3.188c-0.969 5.37 -3.72 9.3 -6.688 13.812l-1 -2 1.25 -1.937c2.106 -3.687 2.952 -7.266 3.992 -11.36 0.758 -2.703 0.758 -2.703 2.383 -6.328 1.237 -3.036 1.59 -4.878 1.813 -8.062 0.263 -3.363 0.412 -4.127 2.625 -6.876z" fill="#3F749E"/><path d="M140 222c4.167 1.042 5.892 2.144 9 5l1 3 -5 -2v-2h-2v-2h-2v30h-1z" fill="#2B495B"/><path d="m350 219 3 1v9c-3.423 0.856 -5.143 1.003 -8.5 0.75 -3.902 -0.066 -3.902 -0.066 -6.937 2.563L336 235l-2 3c-0.362 -6.397 -0.362 -6.397 1.031 -8.719 3.04 -1.978 6.16 -1.596 9.656 -1.469l2.127 0.042c1.73 0.035 3.458 0.089 5.186 0.146 -0.485 -4.646 -0.485 -4.646 -2 -9" fill="#C9D5DD"/><path d="m207 164 3 1v4h6l-1 7c-4.875 -0.875 -4.875 -0.875 -6 -2 -0.04 -2 -0.043 -4 0 -6h-2z" fill="#000C5B"/><path d="m145.668 147.926 2.705 0.166 2.815 0.22 2.85 0.186q3.482 0.23 6.962 0.502v2l-22 1 -1 4c-0.365 -4.502 -0.365 -4.502 1.22 -6.663 2.333 -1.752 3.564 -1.613 6.448 -1.411" fill="#1B95C4"/><path d="m285 123 1 2c-6.26 2.134 -12.422 2.59 -19 3 -0.75 3.471 -0.75 3.471 -1 7h-2c-0.195 -6.055 -0.195 -6.055 0 -8 2.813 -2.813 4.889 -2.37 8.813 -2.562 4.166 -0.216 8.117 -0.5 12.187 -1.438" fill="#E8FEFE"/><path d="M179 219h1v36c-5 -2 -5 -2 -7 -5l5 2z" fill="#BBCCD8"/><path d="M183 168h1v22h-14v-2l12 -1z" fill="#ADE7F5"/><path d="M92 244c1.61 3.218 0.838 5.589 0 9 -2.629 2.075 -4.83 2.943 -8 4v-2h-2l-3 -9c3 3 3 3 4 5.125 0.912 2.228 0.912 2.228 4 2.875v-2l2 -1a161 161 0 0 0 3 -7" fill="#889FA9"/><path d="M60 240c1 2 1 2 0.188 4.5L59 248c-0.56 2.537 -1.054 5.08 -1.535 7.633A107 107 0 0 1 56 262h-2c-0.195 -4.863 0.319 -8.45 2 -13 0.361 -1.66 0.705 -3.326 1 -5h2z" fill="#B4C6CF"/><path d="M217 183h2c-0.114 1.626 -0.242 3.25 -0.375 4.875 -0.07 0.905 -0.14 1.81 -0.21 2.742C218 193 218 193 216 195c-2.688 0.27 -5.291 0.087 -8 0v-3l3.438 -0.437c3.37 -0.175 3.37 -0.175 4.562 -1.563q0.553 -3.493 1 -7" fill="#8DD1E6"/><path d="m210 177 1 3 5 -1c0 4 0 4 -1.375 5.5L213 186c-1.176 2.1 -1.176 2.1 -2 4h-2z" fill="#0A72A5"/><path d="M228 145h2v3h-2v6h-2l-1 5h-2l-1 -3h-2l1 -5 1 3h2v-2h2z" fill="#113A74"/><path d="M54 262h2a592 592 0 0 1 -0.375 5.813l-0.21 3.269C55 274 55 274 53 277h9l1 -5c1 2 1 2 0 6H52v-7h2z" fill="#425967"/><path d="M121 264h1v14h11v2h-13z" fill="#D1DEE6"/><path d="m106 220 1 6 -1 -3h-2l-0.836 1.703c-1.208 2.383 -2.486 4.715 -3.789 7.047l-1.352 2.422L97 236c-0.934 -3.01 -1.044 -3.867 0 -7l2 -1c0.656 -2.527 0.656 -2.527 1 -5h2v-2c2 -1 2 -1 4 -1" fill="#B2BEC6"/><path d="m232 111 2 1 -1.89 2.012c-2.464 3.49 -3.189 6.675 -3.86 10.8l-0.379 2.1c-0.304 1.694 -0.59 3.39 -0.871 5.088h-2a100 100 0 0 1 0 -5l1 -1c0.184 -1.412 0.322 -2.83 0.438 -4.25 0.352 -3.569 0.984 -6.49 2.562 -9.75l3 1z" fill="#E8FCFD"/><path d="M195 143h2l3 9h2v7l-3 -1c-0.914 -2.11 -0.914 -2.11 -1.625 -4.75l-0.727 -2.61A149 149 0 0 1 195 143" fill="#2C5985"/><path d="M100 229c0.904 2.507 1.092 3.717 0.258 6.29l-1.133 2.335 -1.117 2.352L96 244h-3v-4h2l0.813 -2.687c1.104 -3.082 2.415 -5.575 4.187 -8.313" fill="#485F6D"/><path d="M193 128c2.125 0.375 2.125 0.375 4 1v2l4 2 -4 1 -1 -4 -3 1 -1 10h3v2h-4c-0.054 -2.125 -0.093 -4.25 -0.125 -6.375l-0.07 -3.586C191 130 191 130 193 128" fill="#387297"/><path d="M233 119h1v7l5 -1 -4 4 -3 -1 -0.312 1.688c-0.82 2.754 -2.147 4.9 -3.688 7.312 0 -3.015 0.52 -4.869 1.5 -7.687l0.844 -2.45L231 125h2z" fill="#06286A"/><path d="M64 219h1c-0.595 7.143 -1.69 14.19 -4 21l-2 1c1.545 -18.545 1.545 -18.545 5 -22" fill="#CCD9E1"/><path d="M191 126h4v2l-3 2c-0.586 3.116 -0.586 3.116 -0.687 6.625l-0.2 3.602L191 143h4v2h-5a2399 2399 0 0 1 -0.062 -8.937l-0.026 -2.577 -0.01 -2.45 -0.016 -2.27C190 127 190 127 191 126" fill="#9AC8DA"/><path d="M198 140c4.923 4.308 4.923 4.308 5.313 7.813L203 150l-1 -2 -4 2 -2 -8h2z" fill="#021E5F"/><path d="M322 225h4l-0.984 2.121c-1.116 3.161 -1.283 5.6 -1.266 8.941l-0.016 3.098c0.262 2.801 0.825 4.456 2.266 6.84l-4 -2z" fill="#AEBFC4"/><path d="M219 152c1.188 3.43 0.802 5.378 -0.437 8.75l-0.872 2.422L217 165c-4.75 1.125 -4.75 1.125 -7 0l1 -4 4 4 0.367 -2.082 0.508 -2.73 0.492 -2.708C217 155 217 155 219 152" fill="#2E6393"/><path d="M222 159h2v6h-2l0.188 2.25c-0.221 3.235 -1.185 4.29 -3.188 6.75 0.779 -10.558 0.779 -10.558 3 -15" fill="#356593"/><path d="M326 266c2.063 0.438 2.063 0.438 4 1h-3c0.087 1.46 0.195 2.918 0.313 4.375l0.175 2.46c0.342 2.544 0.342 2.544 3.512 4.165v2h-3v-2l-3 -1a758 758 0 0 1 -0.062 -4.937l-0.036 -2.778C325 267 325 267 326 266" fill="#D7E2E6"/><path d="M326 223h3c-0.375 2.438 -0.375 2.438 -1 5l-2 1c-0.693 3.04 -0.693 3.04 -1.125 6.563l-0.508 3.628L324 242h-1c-0.315 -7.096 -0.446 -12.683 3 -19" fill="#425C65"/><path d="m175.438 107.875 2.933 -0.008C181 108 181 108 184 109l-1 3 -1 -1a92 92 0 0 0 -5.375 -0.125l-2.96 -0.008c-2.77 0.019 -2.77 0.019 -5.665 1.133v-3c2.595 -1.298 4.542 -1.133 7.438 -1.125" fill="#EBFEFE"/><path d="m202 143 2 1v3h2c2.429 6.286 2.429 6.286 1 10 -4.342 -4.342 -4.744 -8.136 -5 -14" fill="#2F608C"/><path d="M112 247c4.606 6.909 5.57 12.813 6 21 -2.152 -3.228 -2.2 -4.284 -2 -8h-2q-0.507 -2.123 -1 -4.25l-0.562 -2.39C112 251 112 251 112 247" fill="#AABEC5"/><path d="m221 183 2 3c-0.93 3.645 -2.311 6.623 -4 10h-10v-1l3.375 -0.312L216 194l2 -3h2z" fill="#EBFEFC"/><path d="M206 175h1v18c-1.9 -2.973 -3.484 -5.49 -4 -9 0.559 -2.36 0.559 -2.36 1.438 -4.75l0.87 -2.422z" fill="#E2FDFE"/><path d="M193 132h4l1 6 -5 2z" fill="#001159"/><path d="M203 274c4.75 0.875 4.75 0.875 7 2 2.374 0.071 4.75 0.084 7.125 0.063l3.883 -0.028L224 276c-2.844 2.844 -4.85 2.3 -8.812 2.313l-3.708 0.05c-3.661 -0.382 -5.563 -1.168 -8.48 -3.363z" fill="#506974"/><path d="M222 155c0.987 2.666 1.028 3.901 0.25 6.688C221 164 221 164 218 165c-0.125 -6.75 -0.125 -6.75 1 -9z" fill="#00175C"/><path d="M189 127h1v16c-2.852 -2.852 -2.739 -5.02 -3 -9 0.47 -2.453 1.178 -4.63 2 -7" fill="#DDFAFE"/><path d="M269 227h14v1c-4.873 1.591 -8.808 2.212 -14 2z" fill="#E5F3F7"/><path d="M222 137h1v5l-3 1 0.125 2.875C220 149 220 149 218 151c0.088 -1.584 0.196 -3.168 0.313 -4.75l0.175 -2.672c0.579 -2.915 1.529 -4.396 3.512 -6.578" fill="#E8FCFE"/><path d="M230 145h1l-1 10 -3 1 -1 2v-4h2v-6h2z" fill="#96C3DB"/><path d="M199 134h3v9l-3 -1z" fill="#1D4F82"/><path d="M216 151c1.097 3.29 0.8 4.713 0 8l-4 1c0.615 -5.538 0.615 -5.538 2.563 -7.875z" fill="#E9FDFD"/><path d="m208 153 1 2h3v5l2 1h-4c-2.152 -3.228 -2.2 -4.284 -2 -8" fill="#B0DFEC"/><path d="M234 266c1 2 1 2 0.063 5.125L233 274l-5 1 1.875 -2.25c1.73 -2.238 2.986 -4.187 4.125 -6.75" fill="#D2DEE5"/><path d="M104 223h2l1 7 -6 -1z" fill="#2D4651"/><path d="M68 248h3l1 4 -3 -1 0.125 2.875C69 257 69 257 67 259z" fill="#9EB4C4"/><path d="m234 111 3 1v2l-2.312 1.375c-2.697 1.63 -3.983 3.022 -5.688 5.625 0.503 -4.401 2.088 -6.712 5 -10" fill="#B5E2F1"/><path d="M232 268v3c-5.349 5 -5.349 5 -8 5v-3l2.313 -0.812c2.56 -1.132 3.884 -2.1 5.687 -4.188" fill="#445F6D"/><path d="m159 250 1.813 0.938c2.277 1.164 2.277 1.164 5.187 2.062 0.688 2.063 0.688 2.063 1 4h-2v-2l-5 -1z" fill="#7B929C"/><path d="m210 165 5 1v4l-5 -1z" fill="#072771"/><path d="M214 159h3l-2 6 -4 -2v-2h3z" fill="#93CCE5"/><path d="M197 154h2v4h2v5c-3.938 -3.323 -3.938 -3.323 -4.25 -6.75z" fill="#DAF4FC"/><path d="M195 143h2c2.429 7.429 2.429 7.429 1 11 -3 -6.5 -3 -6.5 -3 -11" fill="#376891"/><path d="M92 244c1.534 3.069 0.55 5.7 0 9l-4 1q0.715 -2.22 1.438 -4.437l0.808 -2.497C91 245 91 245 92 244" fill="#506878"/><path d="m202 159 3 1 1 8h-2z" fill="#204E83"/><path d="M77 264h2l3 9h-2v-2h-2z" fill="#B8C9CF"/><path d="m206 148 3 1c1.188 3.063 1.188 3.063 2 6h-2v-2l-3 -1z" fill="#D2F1F8"/><path d="M196 261c2.834 3.203 3.52 5.78 4 10 -2.59 -1.295 -2.96 -2.327 -4 -5 -0.125 -2.75 -0.125 -2.75 0 -5" fill="#58727C"/><path d="m97 254 1 2 -1 3h-2l-1 2 -1 -6z" fill="#486674"/><path d="M286 152v2h2v2l-7 -1c2.75 -3 2.75 -3 5 -3" fill="#EEFDFD"/><path d="M236 133c1 2 1 2 0.188 5.063C235 141 235 141 233 142c0.498 -3.735 0.875 -5.812 3 -9" fill="#A3D4E6"/><path d="M236 127h1v6l-3 1c-0.125 -2.375 -0.125 -2.375 0 -5z" fill="#244E8A"/></svg>